<svg xmlns="http://www.w3.org/2000/svg" width="597" height="568"><defs><filter id="a" width="108.4%" height="106.4%" x="-4.2%" y="-3.2%" filterUnits="objectBoundingBox"><feOffset in="SourceAlpha" result="shadowOffsetOuter1"/><feGaussianBlur stdDeviation="5" in="shadowOffsetOuter1" result="shadowBlurOuter1"/><feColorMatrix values="0 0 0 0 0 0 0 0 0 0 0 0 0 0 0 0 0 0 0.1 0" in="shadowBlurOuter1" result="shadowMatrixOuter1"/><feMerge><feMergeNode in="shadowMatrixOuter1"/><feMergeNode in="SourceGraphic"/></feMerge></filter><filter id="b" width="108.4%" height="106.4%" x="-4.2%" y="-3.2%" filterUnits="objectBoundingBox"><feOffset in="SourceAlpha" result="shadowOffsetOuter1"/><feGaussianBlur stdDeviation="5" in="shadowOffsetOuter1" result="shadowBlurOuter1"/><feColorMatrix values="0 0 0 0 0 0 0 0 0 0 0 0 0 0 0 0 0 0 0.1 0" in="shadowBlurOuter1" result="shadowMatrixOuter1"/><feMerge><feMergeNode in="shadowMatrixOuter1"/><feMergeNode in="SourceGraphic"/></feMerge></filter><filter id="c" width="108.4%" height="106.4%" x="-4.2%" y="-3.2%" filterUnits="objectBoundingBox"><feOffset in="SourceAlpha" result="shadowOffsetOuter1"/><feGaussianBlur stdDeviation="5" in="shadowOffsetOuter1" result="shadowBlurOuter1"/><feColorMatrix values="0 0 0 0 0 0 0 0 0 0 0 0 0 0 0 0 0 0 0.1 0" in="shadowBlurOuter1" result="shadowMatrixOuter1"/><feMerge><feMergeNode in="shadowMatrixOuter1"/><feMergeNode in="SourceGraphic"/></feMerge></filter></defs><g fill="none" fill-rule="evenodd"><g filter="url(#a)" transform="rotate(-15 398.29 16.62)"><rect width="357" height="472" fill="#FFF" rx="4"/><g transform="translate(38 40)"><rect width="100" height="30" x="1" fill="#469FE5" rx="2"/><rect width="69" height="10" x="213" y="56" fill="#C4C8CC" rx="2"/><rect width="69" height="10" x="1" y="56" fill="#C4C8CC" rx="2"/><rect width="69" height="10" x="1" y="119" fill="#C4C8CC" rx="2"/><rect width="60" height="10" x="222" y="328" fill="#6BBB69" rx="2"/><rect width="50" height="4" x="232" y="79" fill="#F6F4F4" rx="2"/><rect width="100" height="4" x="1" y="79" fill="#F6F4F4" rx="2"/><rect width="100" height="4" x="1" y="142" fill="#F6F4F4" rx="2"/><rect width="100" height="4" x="1" y="93" fill="#F6F4F4" rx="2"/><rect width="100" height="4" x="1" y="156" fill="#F6F4F4" rx="2"/><rect width="282" height="4" y="204" fill="#469FE5" rx="2"/><rect width="282" height="6" y="222" fill="#F6F4F4" rx="2"/><rect width="282" height="6" y="240" fill="#F6F4F4" rx="2"/><rect width="282" height="6" y="257" fill="#F6F4F4" rx="2"/><rect width="282" height="4" y="388" fill="#F6F4F4" rx="2"/><rect width="282" height="4" y="371" fill="#469FE5" rx="2"/><rect width="87" height="4" x="195" y="281" fill="#469FE5" rx="2"/><rect width="50" height="4" x="232" y="93" fill="#F6F4F4" rx="2"/><rect width="44" height="4" x="238" y="300" fill="#F6F4F4" rx="2"/><rect width="44" height="4" x="238" y="314" fill="#F6F4F4" rx="2"/></g></g><g filter="url(#b)" transform="rotate(15 78.978 930.154)"><rect width="357" height="472" fill="#FFF" rx="4"/><g transform="translate(38 48)"><rect width="69" height="10" x="213" fill="#DBBD8A" rx="2"/><rect width="69" height="6" x="1" fill="#C4C8CC" rx="2"/><rect width="60" height="10" x="222" y="312" fill="#6BBB69" rx="2"/><rect width="50" height="4" x="232" y="25" fill="#F6F4F4" rx="2"/><rect width="80" height="4" x="1" y="21" fill="#F6F4F4" rx="2"/><rect width="70" height="4" x="1" y="35" fill="#F6F4F4" rx="2"/><rect width="60" height="4" x="1" y="49" fill="#F6F4F4" rx="2"/><rect width="282" height="4" y="188" fill="#DBBD8A" rx="2"/><rect width="282" height="6" y="206" fill="#F6F4F4" rx="2"/><rect width="282" height="6" y="224" fill="#F6F4F4" rx="2"/><rect width="282" height="6" y="241" fill="#F6F4F4" rx="2"/><rect width="282" height="4" y="372" fill="#F6F4F4" rx="2"/><rect width="282" height="4" y="355" fill="#DBBD8A" rx="2"/><rect width="87" height="4" x="195" y="265" fill="#DBBD8A" rx="2"/><rect width="50" height="4" x="232" y="39" fill="#F6F4F4" rx="2"/><rect width="44" height="4" x="238" y="284" fill="#F6F4F4" rx="2"/><rect width="44" height="4" x="238" y="298" fill="#F6F4F4" rx="2"/></g></g><g filter="url(#c)" transform="translate(120 10)"><rect width="357" height="472" fill="#FFF" rx="4"/><g transform="translate(48 45)"><rect width="69" height="10" x="36" fill="#6BBB69" rx="2"/><rect width="40" height="10" x="36" y="341" fill="#C4C8CC" rx="2"/><rect width="40" height="10" x="181" y="341" fill="#C4C8CC" rx="2"/><rect width="185" height="10" x="36" y="268" fill="#6BBB69" rx="2"/><rect width="50" height="4" x="36" y="23" fill="#F6F4F4" rx="2"/><rect width="69" height="4" x="36" y="364" fill="#F6F4F4" rx="2"/><rect width="69" height="4" x="152" y="364" fill="#F6F4F4" rx="2"/><rect width="69" height="4" x="36" y="378" fill="#F6F4F4" rx="2"/><rect width="69" height="4" x="152" y="378" fill="#F6F4F4" rx="2"/><rect width="50" height="4" x="36" y="37" fill="#F6F4F4" rx="2"/><rect width="185" height="4" x="36" y="240" fill="#EC476E" rx="2"/><rect width="185" height="4" x="36" y="254" fill="#F9D548" rx="2"/><rect width="261" height="142" y="66" fill="#F9FAFA" rx="4"/><g fill="#F6F4F4" transform="translate(38 92)"><rect width="185" height="6" rx="2"/><rect width="185" height="6" y="21" rx="2"/><rect width="185" height="6" y="42" rx="2"/><rect width="185" height="6" y="63" rx="2"/><rect width="185" height="6" y="84" rx="2"/></g></g></g></g></svg>