<?xml version="1.0" encoding="UTF-8"?>
<svg width="160px" height="129px" viewBox="0 0 160 129" version="1.1" xmlns="http://www.w3.org/2000/svg" xmlns:xlink="http://www.w3.org/1999/xlink">
    <!-- Generator: Sketch 47 (45396) - http://www.bohemiancoding.com/sketch -->
    <title>Group 2</title>
    <desc>Created with Sketch.</desc>
    <defs>
        <linearGradient x1="50%" y1="30.2951389%" x2="50%" y2="135.469934%" id="linearGradient-1">
            <stop stop-color="#7081AC" offset="0%"></stop>
            <stop stop-color="#3D4A74" offset="100%"></stop>
        </linearGradient>
        <path d="M80.8888889,127.795765 C81.5187251,122.27541 83.8189927,94.6810918 85.037037,90.7790603 C87.1358013,84.0556234 90.1077424,79.7345366 93.9528603,77.8158001 C105.699675,72.5402431 107.017674,77.0674096 125.225237,66.5162956 C133.154337,60.9476521 134.035348,54.2066625 134.622689,42.190116 C135.21003,34.569867 141.377108,19.0362824 149.893549,19.0362824 C152.277651,19.0362824 154.298604,19.0362824 157.235308,20.5017149 C161.640363,23.43258 159.878341,18.1570229 158.116319,16.3985039 C151.949241,10.8298604 147.544186,9.36442792 140.202426,8.77825491 C126.693589,7.60590891 116.121456,13.7607254 109.660708,12.2952929 C103.199959,10.8298604 107.898685,0.614629182 102.612619,0.0284561806 C97.326552,-0.557716821 98.7717637,8.08233883 94.0961779,10.2436874 C91.9534325,11.2341985 87.0480889,12.2952929 80,12.2952929 C72.9519111,12.2952929 68.0465675,11.2341985 65.9038221,10.2436874 C61.2282363,8.08233883 62.673448,-0.557716821 57.3873813,0.0284561806 C52.1013146,0.614629182 56.8000406,10.8298604 50.3392924,12.2952929 C43.8785442,13.7607254 33.3064108,7.60590891 19.7975737,8.77825491 C12.4558144,9.36442792 8.05075882,10.8298604 1.883681,16.3985039 C0.121658768,18.1570229 -1.64036346,23.43258 2.76469212,20.5017149 C5.70139584,19.0362824 7.72234869,19.0362824 10.1064514,19.0362824 C18.6228922,19.0362824 24.78997,34.569867 25.3773108,42.190116 C25.9646515,54.2066625 26.8456626,60.9476521 34.7747627,66.5162956 C52.9823258,77.0674096 54.580023,72.5402431 66.3268379,77.8158001 C70.2596231,79.7782832 73.2789614,84.2539107 75.3848527,91.2426829 C76.5373944,95.0675957 78.4103736,122.528398 79.0157044,127.858838 C79.059818,129.39074 80.8375958,129.39074 80.8888889,127.795765 Z" id="path-2"></path>
    </defs>
    <g id="Page-1" stroke="none" stroke-width="1" fill="none" fill-rule="evenodd">
        <g id="Group-2">
            <mask id="mask-3" fill="white">
                <use xlink:href="#path-2"></use>
            </mask>
            <use id="Body" fill="url(#linearGradient-1)" xlink:href="#path-2"></use>
            <path d="M-72,50.0000032 C-33.24,50.0000032 -34.3682521,110.984585 4,110.93009 C42.3682521,110.875594 42.1499578,50.0161655 80,50.0000032 C117.850042,49.9838409 118.293573,110.936831 156,111" id="Path-2-Copy-12" stroke="#FFFFFF" stroke-width="6" mask="url(#mask-3)"></path>
            <path d="M-16.0322336,119.096528 C-19.9621444,111.983567 -22.9503925,103.50741 -27.0567358,89.2100401 C-27.5440119,87.5134535 -29.2692916,81.4326581 -29.6291924,80.1762841 C-35.067203,61.1927945 -38.7311878,52.6229825 -43.5184462,49.6961026 C-48.7873462,46.474752 -57.0308539,52.3437903 -69.479579,71.6271104 C-80.2094333,88.2478659 -73.7947446,100.487075 -51.4034119,110.11211 C-41.8480066,114.219552 -29.6773141,117.649975 -15.2659357,120.439276 C-15.5240538,120.001646 -15.7794633,119.554031 -16.0322336,119.096528 Z M37.2513451,127.158023 C66.8000305,129.49407 99.2761882,130.180983 129.052538,129.605336 C132.49676,129.538751 135.807456,129.455434 138.900387,129.36012 C136.316412,127.821704 133.858122,125.909034 131.494407,123.634568 C126.311844,118.647686 122.841511,113.756716 115.567085,102.151545 C108.50575,90.8863288 105.197353,86.2261386 100.474223,81.6905586 C94.454596,75.909965 87.9718398,72.9965994 80.001281,73.0000029 C72.0888438,73.0033816 65.6788587,75.8745492 59.7503547,81.5677882 C55.0865863,86.046481 51.7855671,90.7150225 44.9335904,101.72686 L44.7325258,102.049997 C37.5556876,113.583914 34.0334989,118.55915 28.8078233,123.561557 C27.8401736,124.487864 26.8557741,125.354168 25.8525187,126.159633 C29.5705216,126.518581 33.3712435,126.851271 37.2513451,127.158023 Z M4.00426097,133.930087 C-3.86956011,133.94127 -10.1084441,129.183614 -15.2659357,120.439276 C-3.08513053,122.796853 10.6964189,124.696413 25.8525187,126.159633 C19.503002,131.257353 12.3982121,133.918165 4.00426097,133.930087 Z M-74.520421,68.372896 C-60.4529152,46.5820527 -49.668111,38.9037157 -40.3887083,44.577046 C-33.6834032,48.6765997 -29.8283231,57.6933708 -23.8611863,78.5239811 C-23.4982833,79.7908351 -21.7737655,85.8689453 -21.2898756,87.553742 C-17.3047364,101.429107 -14.4239523,109.600442 -10.7804918,116.194941 C-6.42515581,124.077902 -1.66811718,127.938137 3.99573903,127.930093 C12.086147,127.918602 18.6297662,124.998762 24.6587836,119.227337 C29.3928959,114.695491 32.7333784,109.976922 39.6382216,98.8801291 L39.8392853,98.5569935 C46.962062,87.1099519 50.4425269,82.1876252 55.5944514,77.2401482 C62.5865858,70.5254876 70.4482517,67.0040816 79.998719,67.0000035 C89.6132587,66.995898 97.5475548,70.561589 104.630069,77.3628639 C109.836313,82.3623729 113.319245,87.2684123 120.614424,98.9066908 C127.65606,110.140482 130.952765,114.786746 135.654641,119.31109 C141.645176,125.075437 148.089206,127.986743 156.005026,128.000004 C157.217856,128.002036 158.117434,128.021959 158.715339,128.061234 C159.133009,128.088671 159.441066,128.124252 159.754585,128.201073 C159.966601,128.255274 159.966601,128.255274 160.311763,128.389768 C160.784094,128.593688 160.784094,128.593688 161.630455,129.502705 C162.302951,131.423745 162.302951,131.423745 161.507048,132.993187 C160.799728,133.69958 160.799728,133.69958 160.412703,133.887399 C159.619546,134.275929 158.446305,134.401921 155.144031,134.630139 C149.432527,135.024857 139.940961,135.395958 129.16851,135.604215 C99.2093131,136.183397 66.5428454,135.492458 36.7784752,133.13936 C-2.23581422,130.054985 -33.4095219,124.377724 -53.7729055,115.624414 C-79.1864421,104.700269 -87.6039923,88.6396053 -74.520421,68.372896 Z" id="Path-2-Copy-15" fill="#FFFFFF" fill-rule="nonzero" mask="url(#mask-3)"></path>
            <path d="M-103,28.0000038 C-56.42,28.0000038 -57.7758819,100.981553 -11.6666667,100.916337 C34.4425485,100.851121 34.1802124,28.0193456 79.6666667,28.0000038 C125.153121,27.9806621 125.686136,100.924404 171,101" id="Path-2-Copy-13" stroke="#FFFFFF" stroke-width="6" mask="url(#mask-3)"></path>
            <path d="M-72,-8.13042755 C-33.24,-8.13042755 -34.3682521,52.9845524 4,52.9299404 C24.6908408,52.9004898 30.2970166,31.4094575 39.0899961,11.6091435 C46.6023595,-5.3074379 56.4408655,-20.9899137 80.000008,-20.9999951 C103.569956,-21.0100812 113.547292,-5.30175786 121.147749,11.6427834 C130.036277,31.4589625 135.67403,52.9658754 156,53" id="Path-2-Copy-14" stroke="#FFFFFF" stroke-width="6" mask="url(#mask-3)"></path>
        </g>
    </g>
</svg>