<svg xmlns="http://www.w3.org/2000/svg" width="244" height="198"><defs><linearGradient id="a" x1="100%" x2="0%" y1="100%" y2="0%"><stop stop-color="#3023AE" offset="0%"/><stop stop-color="#C86DD7" offset="100%"/></linearGradient></defs><path fill="url(#a)" fill-rule="evenodd" d="M123.355556 196.151639c.9605-8.473102 4.468408-50.827172 6.325925-56.816337 3.200616-10.319694 7.732826-16.95206 13.596631-19.897097 17.913893-8.097367 19.923841-1.148693 47.690375-17.343426 12.091877-8.54722 13.435419-18.8938551 14.331114-37.3378568.895695-11.6961961 10.300488-35.5384422 23.288061-35.5384422 3.635756 0 6.717709 0 11.196183 2.2492685 6.717709 4.498537 4.030625-3.5988296 1.343541-6.2979518-9.404793-8.5472202-16.122503-10.7964887-27.318686-11.6961961-20.600977-1.7994148-36.72348 7.6475128-46.576121 5.3982444-9.852641-2.2492685-2.687084-17.92846067-10.748336-18.82816807-8.061251-.8997074-5.857303 12.36177337-12.987572 15.67919217C140.228985 17.2431884 132.748336 18.871845 122 18.871845c-10.748336 0-18.228985-1.6286566-21.496671-3.1489759C93.3730604 12.4054503 95.5770083-.85603047 87.5157565.04367693c-8.0612517.8997074-.8956946 16.57889957-10.7483356 18.82816807-9.852641 2.2492684-25.9751444-7.1976592-46.576121-5.3982444-11.1961829.8997074-17.9138927 3.1489759-27.31868637 11.6961961-2.6870839 2.6991222-5.3741678 10.7964888 1.34354195 6.2979518C8.69462866 29.21848 11.7765817 29.21848 15.4123384 29.21848c12.9875722 0 22.3923659 23.8422461 23.2880605 35.5384422.8956947 18.4440017 2.2392366 28.7906368 14.3311142 37.3378568 27.7665337 16.194733 30.203022 9.246059 48.1169149 17.343426 5.997497 3.012183 10.601988 9.881751 13.813472 20.608704 1.757626 5.870796 4.61392 48.019934 5.537049 56.201541.067273 2.351291 2.778385 2.351291 2.856607-.096811z"/></svg>