<svg xmlns="http://www.w3.org/2000/svg" width="597" height="568" xmlns:xlink="http://www.w3.org/1999/xlink"><defs><filter id="g" width="105.4%" height="105.6%" x="-2.7%" y="-2.8%" filterUnits="objectBoundingBox"><feOffset in="SourceAlpha" result="shadowOffsetOuter1"/><feGaussianBlur stdDeviation="5" in="shadowOffsetOuter1" result="shadowBlurOuter1"/><feColorMatrix values="0 0 0 0 0 0 0 0 0 0 0 0 0 0 0 0 0 0 0.1 0" in="shadowBlurOuter1" result="shadowMatrixOuter1"/><feMerge><feMergeNode in="shadowMatrixOuter1"/><feMergeNode in="SourceGraphic"/></feMerge></filter><rect id="a" width="181" height="27.843" y="43.157" rx="4"/><mask id="h" width="181" height="27.843" x="0" y="0" fill="#fff"><use xlink:href="#a"/></mask><rect id="b" width="83.538" height="22.275" rx="4"/><mask id="i" width="83.538" height="22.275" x="0" y="0" fill="#fff"><use xlink:href="#b"/></mask><rect id="c" width="181" height="27.843" y="43.157" rx="4"/><mask id="j" width="181" height="27.843" x="0" y="0" fill="#fff"><use xlink:href="#c"/></mask><rect id="d" width="83.538" height="22.275" rx="4"/><mask id="k" width="83.538" height="22.275" x="0" y="0" fill="#fff"><use xlink:href="#d"/></mask><rect id="e" width="391" height="27.843" y="43.157" rx="4"/><mask id="l" width="391" height="27.843" x="0" y="0" fill="#fff"><use xlink:href="#e"/></mask><rect id="f" width="83.786" height="22.275" rx="4"/><mask id="m" width="83.786" height="22.275" x="0" y="0" fill="#fff"><use xlink:href="#f"/></mask></defs><g fill="none" fill-rule="evenodd" filter="url(#g)" transform="translate(21 16)"><path fill="#FFF" d="M56 0h489.18c4.458 0 6.075.464 7.704 1.336 1.63.87 2.91 2.15 3.78 3.78.872 1.63 1.336 3.246 1.336 7.703v510.36c0 4.458-.464 6.075-1.336 7.704-.87 1.63-2.15 2.91-3.78 3.78-1.63.872-3.246 1.336-7.703 1.336H56V0z"/><path fill="#2C323A" d="M56 0H10C4.477 0 0 4.477 0 10v516c0 5.523 4.477 10 10 10h46V0z"/><circle cx="28" cy="64" r="13" fill="#6BBB69"/><circle cx="28" cy="114" r="13" fill="#F9D548"/><circle cx="28" cy="162" r="13" fill="#469FE5"/><circle cx="28" cy="211" r="13" fill="#C4C8CC"/><rect width="70" height="20" x="111" y="220" fill="#6BBB69" rx="4"/><g transform="translate(111 70)"><rect width="223" height="28" y="45" fill="#F9FAFA" rx="4"/><rect width="70" height="28" x="238" y="45" fill="#F9FAFA" rx="4"/><rect width="70" height="28" x="322" y="45" fill="#F9FAFA" rx="4"/><rect width="223" height="28" y="93" fill="#F9FAFA" rx="4"/><rect width="70" height="28" x="238" y="93" fill="#F9FAFA" rx="4"/><rect width="70" height="28" x="322" y="93" fill="#F9FAFA" rx="4"/><rect width="84" height="17" fill="#F6F4F4" transform="matrix(1 0 0 -1 0 17)" rx="4"/></g><g stroke="#B4B7BA" stroke-width="4" transform="translate(111 408)" stroke-dasharray="10,4,10,4"><use mask="url(#h)" xlink:href="#a"/><use mask="url(#i)" transform="matrix(1 0 0 -1 0 22.275)" xlink:href="#b"/></g><g stroke="#B4B7BA" stroke-width="4" transform="translate(320 408)" stroke-dasharray="10,4,10,4"><use mask="url(#j)" xlink:href="#c"/><use mask="url(#k)" transform="matrix(1 0 0 -1 0 22.275)" xlink:href="#d"/></g><g stroke="#B4B7BA" stroke-width="4" transform="translate(111 296)" stroke-dasharray="10,4,10,4"><use mask="url(#l)" xlink:href="#e"/><use mask="url(#m)" transform="matrix(1 0 0 -1 0 22.275)" xlink:href="#f"/></g></g></svg>