<svg width="584" height="449" xmlns="http://www.w3.org/2000/svg" xmlns:xlink="http://www.w3.org/1999/xlink"><defs><path d="M238.883608 432.711028L9.03114187 299.031142 333.710485 119.722595l241.272214 132.145917-316.109887 180.91212c-6.197696 3.546989-13.816359 3.520461-19.989204-.069604z" id="b"/><filter x="-2.7%" y="-4.8%" width="105.3%" height="109.5%" filterUnits="objectBoundingBox" id="a"><feOffset in="SourceAlpha" result="shadowOffsetOuter1"/><feGaussianBlur stdDeviation="5" in="shadowOffsetOuter1" result="shadowBlurOuter1"/><feColorMatrix values="0 0 0 0 0.0941176471 0 0 0 0 0.0941176471 0 0 0 0 0.0941176471 0 0 0 0.35 0" in="shadowBlurOuter1"/></filter><path id="d" d="M218.167602 335.331516L.55421107 209.692277 297.200128 38.1116194 514.45428 163.544145z"/><filter x="-1.6%" y="-2.7%" width="103.1%" height="105.4%" filterUnits="objectBoundingBox" id="c"><feMorphology radius=".5" operator="dilate" in="SourceAlpha" result="shadowSpreadOuter1"/><feOffset in="shadowSpreadOuter1" result="shadowOffsetOuter1"/><feGaussianBlur stdDeviation="2.5" in="shadowOffsetOuter1" result="shadowBlurOuter1"/><feComposite in="shadowBlurOuter1" in2="SourceAlpha" operator="out" result="shadowBlurOuter1"/><feColorMatrix values="0 0 0 0 0 0 0 0 0 0 0 0 0 0 0 0 0 0 0.05 0" in="shadowBlurOuter1"/></filter><path id="f" d="M218.167602 325.296913L.55421107 199.657675 297.200128 28.0770173 514.45428 153.509543z"/><filter x="-1.6%" y="-2.7%" width="103.1%" height="105.4%" filterUnits="objectBoundingBox" id="e"><feMorphology radius=".5" operator="dilate" in="SourceAlpha" result="shadowSpreadOuter1"/><feOffset in="shadowSpreadOuter1" result="shadowOffsetOuter1"/><feGaussianBlur stdDeviation="2.5" in="shadowOffsetOuter1" result="shadowBlurOuter1"/><feComposite in="shadowBlurOuter1" in2="SourceAlpha" operator="out" result="shadowBlurOuter1"/><feColorMatrix values="0 0 0 0 0 0 0 0 0 0 0 0 0 0 0 0 0 0 0.05 0" in="shadowBlurOuter1"/></filter><path id="h" d="M218.167602 316.736997L.55421107 191.097758 297.200128 19.5171003 514.45428 144.949626z"/><filter x="-1.6%" y="-2.7%" width="103.1%" height="105.4%" filterUnits="objectBoundingBox" id="g"><feMorphology radius=".5" operator="dilate" in="SourceAlpha" result="shadowSpreadOuter1"/><feOffset in="shadowSpreadOuter1" result="shadowOffsetOuter1"/><feGaussianBlur stdDeviation="2.5" in="shadowOffsetOuter1" result="shadowBlurOuter1"/><feComposite in="shadowBlurOuter1" in2="SourceAlpha" operator="out" result="shadowBlurOuter1"/><feColorMatrix values="0 0 0 0 0 0 0 0 0 0 0 0 0 0 0 0 0 0 0.05 0" in="shadowBlurOuter1"/></filter><path id="j" d="M218.167602 307.173619L.55421107 181.534381 297.200128 9.95372318 514.45428 135.386249z"/><filter x="-1.6%" y="-2.7%" width="103.1%" height="105.4%" filterUnits="objectBoundingBox" id="i"><feMorphology radius=".5" operator="dilate" in="SourceAlpha" result="shadowSpreadOuter1"/><feOffset in="shadowSpreadOuter1" result="shadowOffsetOuter1"/><feGaussianBlur stdDeviation="2.5" in="shadowOffsetOuter1" result="shadowBlurOuter1"/><feComposite in="shadowBlurOuter1" in2="SourceAlpha" operator="out" result="shadowBlurOuter1"/><feColorMatrix values="0 0 0 0 0 0 0 0 0 0 0 0 0 0 0 0 0 0 0.05 0" in="shadowBlurOuter1"/></filter><path id="l" d="M218.167602 297.610242L.55421107 171.971003 297.200128.39034602 514.45428 125.822872z"/><filter x="-1.6%" y="-2.7%" width="103.1%" height="105.4%" filterUnits="objectBoundingBox" id="k"><feMorphology radius=".5" operator="dilate" in="SourceAlpha" result="shadowSpreadOuter1"/><feOffset in="shadowSpreadOuter1" result="shadowOffsetOuter1"/><feGaussianBlur stdDeviation="2.5" in="shadowOffsetOuter1" result="shadowBlurOuter1"/><feComposite in="shadowBlurOuter1" in2="SourceAlpha" operator="out" result="shadowBlurOuter1"/><feColorMatrix values="0 0 0 0 0 0 0 0 0 0 0 0 0 0 0 0 0 0 0.05 0" in="shadowBlurOuter1"/></filter><path id="n" d="M218.167602 340.226896L.55421107 214.587657 297.200128 43.007 514.45428 168.439526z"/><filter x="-1.6%" y="-2.7%" width="103.1%" height="105.4%" filterUnits="objectBoundingBox" id="m"><feMorphology radius=".5" operator="dilate" in="SourceAlpha" result="shadowSpreadOuter1"/><feOffset in="shadowSpreadOuter1" result="shadowOffsetOuter1"/><feGaussianBlur stdDeviation="2.5" in="shadowOffsetOuter1" result="shadowBlurOuter1"/><feComposite in="shadowBlurOuter1" in2="SourceAlpha" operator="out" result="shadowBlurOuter1"/><feColorMatrix values="0 0 0 0 0 0 0 0 0 0 0 0 0 0 0 0 0 0 0.05 0" in="shadowBlurOuter1"/></filter><path id="p" d="M218.167602 330.663519L.55421107 205.02428 297.200128 33.4436228 514.45428 158.876149z"/><filter x="-1.6%" y="-2.7%" width="103.1%" height="105.4%" filterUnits="objectBoundingBox" id="o"><feMorphology radius=".5" operator="dilate" in="SourceAlpha" result="shadowSpreadOuter1"/><feOffset in="shadowSpreadOuter1" result="shadowOffsetOuter1"/><feGaussianBlur stdDeviation="2.5" in="shadowOffsetOuter1" result="shadowBlurOuter1"/><feComposite in="shadowBlurOuter1" in2="SourceAlpha" operator="out" result="shadowBlurOuter1"/><feColorMatrix values="0 0 0 0 0 0 0 0 0 0 0 0 0 0 0 0 0 0 0.05 0" in="shadowBlurOuter1"/></filter><path id="r" d="M218.167602 321.100142L.55421107 195.460903 297.200128 23.8802457 514.45428 149.312772z"/><filter x="-1.6%" y="-2.7%" width="103.1%" height="105.4%" filterUnits="objectBoundingBox" id="q"><feMorphology radius=".5" operator="dilate" in="SourceAlpha" result="shadowSpreadOuter1"/><feOffset in="shadowSpreadOuter1" result="shadowOffsetOuter1"/><feGaussianBlur stdDeviation="2.5" in="shadowOffsetOuter1" result="shadowBlurOuter1"/><feComposite in="shadowBlurOuter1" in2="SourceAlpha" operator="out" result="shadowBlurOuter1"/><feColorMatrix values="0 0 0 0 0 0 0 0 0 0 0 0 0 0 0 0 0 0 0.05 0" in="shadowBlurOuter1"/></filter><path id="t" d="M218.167602 309.661398L.55421107 184.022159 297.200128 12.4415017 514.45428 137.874028z"/><filter x="-1.6%" y="-2.7%" width="103.1%" height="105.4%" filterUnits="objectBoundingBox" id="s"><feMorphology radius=".5" operator="dilate" in="SourceAlpha" result="shadowSpreadOuter1"/><feOffset in="shadowSpreadOuter1" result="shadowOffsetOuter1"/><feGaussianBlur stdDeviation="2.5" in="shadowOffsetOuter1" result="shadowBlurOuter1"/><feComposite in="shadowBlurOuter1" in2="SourceAlpha" operator="out" result="shadowBlurOuter1"/><feColorMatrix values="0 0 0 0 0 0 0 0 0 0 0 0 0 0 0 0 0 0 0.05 0" in="shadowBlurOuter1"/></filter><path id="v" d="M218.167602 298.222754L.55421107 172.583516 297.200128 1.00285813 514.45428 126.435384z"/><filter x="-1.6%" y="-2.7%" width="103.1%" height="105.4%" filterUnits="objectBoundingBox" id="u"><feMorphology radius=".5" operator="dilate" in="SourceAlpha" result="shadowSpreadOuter1"/><feOffset in="shadowSpreadOuter1" result="shadowOffsetOuter1"/><feGaussianBlur stdDeviation="2.5" in="shadowOffsetOuter1" result="shadowBlurOuter1"/><feComposite in="shadowBlurOuter1" in2="SourceAlpha" operator="out" result="shadowBlurOuter1"/><feColorMatrix values="0 0 0 0 0 0 0 0 0 0 0 0 0 0 0 0 0 0 0.05 0" in="shadowBlurOuter1"/></filter></defs><g fill="none" fill-rule="evenodd"><use filter="url(#a)" xlink:href="#b" fill="#000" transform="translate(0 4)"/><path fill="#5983B3" d="M329.310654 101.1327405L579.588682 245.63101v-72.248131L329.310654 28.884609z"/><g transform="translate(32.110727 56.179931)"><use fill="#000" filter="url(#c)" xlink:href="#d"/><use stroke-opacity=".1" stroke="#000" fill="#FFFFFE" xlink:href="#d"/></g><g transform="translate(32.110727 56.179931)"><use fill="#000" filter="url(#e)" xlink:href="#f"/><use stroke-opacity=".1" stroke="#000" fill="#FFFFFE" xlink:href="#f"/></g><g transform="translate(32.110727 56.179931)"><use fill="#000" filter="url(#g)" xlink:href="#h"/><use stroke-opacity=".1" stroke="#000" fill="#FFFFFE" xlink:href="#h"/></g><g transform="translate(32.110727 56.179931)"><use fill="#000" filter="url(#i)" xlink:href="#j"/><use stroke-opacity=".1" stroke="#000" fill="#FFFFFE" xlink:href="#j"/></g><g transform="translate(32.110727 56.179931)"><use fill="#000" filter="url(#k)" xlink:href="#l"/><use stroke-opacity=".1" stroke="#000" fill="#FFFFFE" xlink:href="#l"/></g><path d="M168.370488 297.21027c-.538858 1.071695-1.093772 2.127336-1.681799 3.147855-13.854776 23.996747-36.318236 23.996747-50.173011-.001004-6.277647-10.871488-9.70045-24.805536-10.289481-39.025571l-89.7635292-51.825709v72.249135l250.2780282 144.49827v-72.249135l-98.370208-56.793841z" fill="#4272A6"/><path d="M151.90782 306.565429c-.538858 1.071696-1.093772 2.127336-1.681799 3.147855-13.854775 23.996747-36.318236 23.996747-50.173011-.001004-6.2776467-10.871488-9.7004494-24.805536-10.2894806-39.025571L0 218.861v72.249135l250.278028 144.49827V363.35927l-98.370208-56.793841z" fill="#457EB9"/><path fill="#6392C7" d="M89.7633287 270.686308L-.0002007 218.861602h32.6656401l73.5606576 42.469446zM250.278329 363.359671l-98.370208-56.793841 16.462768-9.355259 81.90744 47.290069z"/><path fill="#608CBF" d="M579.587277 173.381474L250.27873 363.359571V344.50054l296.285675-171.78737z"/><path fill="#33679D" d="M579.588882 245.630408L250.278329 435.608505V363.35937l329.308546-189.978097z"/><path fill="#5E82AB" d="M329.310554 47.2808443L32.6656401 218.861502H0L329.310554 28.8844083z"/><g><g transform="translate(32.110727 4)"><use fill="#000" filter="url(#m)" xlink:href="#n"/><use stroke-opacity=".1" stroke="#000" fill="#FFFFFE" xlink:href="#n"/></g><g transform="translate(32.110727 4)"><use fill="#000" filter="url(#o)" xlink:href="#p"/><use stroke-opacity=".1" stroke="#000" fill="#FFFFFE" xlink:href="#p"/></g><g transform="translate(32.110727 4)"><use fill="#000" filter="url(#q)" xlink:href="#r"/><use stroke-opacity=".1" stroke="#000" fill="#FFFFFE" xlink:href="#r"/></g><g transform="translate(32.110727 4)"><use fill="#000" filter="url(#s)" xlink:href="#t"/><use stroke-opacity=".1" stroke="#000" fill="#FFFFFE" xlink:href="#t"/></g><g transform="translate(32.110727 4)"><use fill="#000" filter="url(#u)" xlink:href="#v"/><use stroke-opacity=".1" stroke="#000" fill="#FFFFFE" xlink:href="#v"/></g></g><g><path fill="#F2F1F0" d="M289.030156 146.938492l-69.52173-40.1384086 8.027681-4.6349827 69.52173 40.1384083zM444.047498 150.071897l-69.52173-40.1384088 8.027682-4.6349827 69.52173 40.1384085zM426.936394 159.951063l-69.52173-40.1384087 8.027682-4.6349827 69.52173 40.1384084zM461.060062 140.249727l-69.52173-40.1384083 8.027682-4.6349827 69.52173 40.1384083zM351.591585 203.451364l-149.7443601-86.4551214 8.0276821-4.6339793 149.744359 86.4541177zM333.930685 213.647924l-149.7443597-86.4551209 8.0276816-4.6339792L341.958367 209.012942zM194.0606747 201.769063l-69.5217301-40.138409 8.0276817-4.634982 69.5217301 40.138408zM213.38782 190.610585l-69.52173-40.138408 8.0276816-4.634983 69.5217304 40.138408zM232.714965 179.452108l-69.5217297-40.138409 8.0276816-4.6349824 69.5217301 40.1384084zM256.998903 258.064485l-149.74435975-86.455121 8.02768166-4.63398L265.026585 253.429502zM278.296844 245.768083l-69.52173-40.138408 45.194844-26.092976 69.521731 40.138409z"/><path fill="#A34240" d="M344.795149 114.7424709L258.048021 64.659772l48.03564-27.73363323 86.746124 50.08370243z"/><path d="M309.416554 66.350201c1.311522.0230796 2.592941-.327128 3.845259-1.0496193 1.233253-.7124568 1.819273-1.4409689 1.761073-2.1875433-.059204-.7455709-.723495-1.4851211-1.990865-2.2166436l-3.654602-2.1102768-7.48481 4.3219031 3.654602 2.1092734c1.26737.7315225 2.55782 1.109827 3.869343 1.1329065m10.4691-3.2993771c-.004014 1.399827-1.113841 2.7384429-3.329481 4.0178547-2.311972 1.334602-4.713253 2.0229757-7.203841 2.0641176-2.491592.0411419-4.837681-.5739792-7.040277-1.8453633l-3.829204-2.2106229-5.953529 3.4368513-3.353564-1.9356748 20.229758-11.6802768 7.182768 4.147301c2.202595 1.2713841 3.301384 2.6069897 3.29737 4.0058132M320.580952 79.787035c1.42692.1685813 2.888961.0993425 4.384117-.2047059 1.495156-.3050519 2.888962-.8298616 4.179412-1.5754325 1.29045-.7445675 2.201592-1.5593772 2.732422-2.4434257.528824-.8840484.641211-1.7430103.333149-2.5768858-.307059-.8338754-1.00346-1.5643944-2.088201-2.1905536l-3.879377-2.2397232-13.409239 7.7416955 4.00481 2.3119723c1.067682.6171281 2.314983 1.0084775 3.742907 1.1770589m16.420622-7.4717647c.526817 1.2944636.412423 2.6130103-.344186 3.9556401-.757613 1.3426297-2.109274 2.5758823-4.054983 3.6987543-1.94571 1.1238754-4.081073 1.8995502-6.405087 2.3260208-2.324014.4264706-4.61993.4856747-6.888754.176609-2.268824-.3080623-4.295813-.9783737-6.080969-2.0089274l-7.157682-4.1322491 20.229758-11.6802768 7.282111 4.2055017c1.752042 1.0114879 2.891972 2.1644637 3.419792 3.4589274M345.645782 75.8208585l12.088685 6.9790657-3.406747 1.9376817-8.710035-5.0283391-5.461834 3.1538754 7.93436 4.5797924-3.381661 1.9527336-7.933356-4.5807959-8.005606 4.6219377-3.353564-1.9366782z" fill="#FFFFFE"/></g></g></svg>