<?xml version="1.0" encoding="UTF-8"?>
<svg width="597px" height="568px" viewBox="0 0 597 568" version="1.1" xmlns="http://www.w3.org/2000/svg" xmlns:xlink="http://www.w3.org/1999/xlink">
    <!-- Generator: Sketch 47 (45396) - http://www.bohemiancoding.com/sketch -->
    <title>Create</title>
    <desc>Created with Sketch.</desc>
    <defs>
        <filter x="-2.7%" y="-2.8%" width="105.4%" height="105.6%" filterUnits="objectBoundingBox" id="filter-1">
            <feOffset dx="0" dy="0" in="SourceAlpha" result="shadowOffsetOuter1"></feOffset>
            <feGaussianBlur stdDeviation="5" in="shadowOffsetOuter1" result="shadowBlurOuter1"></feGaussianBlur>
            <feColorMatrix values="0 0 0 0 0   0 0 0 0 0   0 0 0 0 0  0 0 0 0.1 0" type="matrix" in="shadowBlurOuter1" result="shadowMatrixOuter1"></feColorMatrix>
            <feMerge>
                <feMergeNode in="shadowMatrixOuter1"></feMergeNode>
                <feMergeNode in="SourceGraphic"></feMergeNode>
            </feMerge>
        </filter>
        <rect id="path-2" x="0" y="43.1568627" width="181" height="27.8431373" rx="4"></rect>
        <mask id="mask-3" maskContentUnits="userSpaceOnUse" maskUnits="objectBoundingBox" x="0" y="0" width="181" height="27.8431373" fill="white">
            <use xlink:href="#path-2"></use>
        </mask>
        <rect id="path-4" x="0" y="0" width="83.5384615" height="22.2745098" rx="4"></rect>
        <mask id="mask-5" maskContentUnits="userSpaceOnUse" maskUnits="objectBoundingBox" x="0" y="0" width="83.5384615" height="22.2745098" fill="white">
            <use xlink:href="#path-4"></use>
        </mask>
        <rect id="path-6" x="0" y="43.1568627" width="181" height="27.8431373" rx="4"></rect>
        <mask id="mask-7" maskContentUnits="userSpaceOnUse" maskUnits="objectBoundingBox" x="0" y="0" width="181" height="27.8431373" fill="white">
            <use xlink:href="#path-6"></use>
        </mask>
        <rect id="path-8" x="0" y="0" width="83.5384615" height="22.2745098" rx="4"></rect>
        <mask id="mask-9" maskContentUnits="userSpaceOnUse" maskUnits="objectBoundingBox" x="0" y="0" width="83.5384615" height="22.2745098" fill="white">
            <use xlink:href="#path-8"></use>
        </mask>
        <rect id="path-10" x="0" y="43.1568627" width="391" height="27.8431373" rx="4"></rect>
        <mask id="mask-11" maskContentUnits="userSpaceOnUse" maskUnits="objectBoundingBox" x="0" y="0" width="391" height="27.8431373" fill="white">
            <use xlink:href="#path-10"></use>
        </mask>
        <rect id="path-12" x="0" y="0" width="83.7857143" height="22.2745098" rx="4"></rect>
        <mask id="mask-13" maskContentUnits="userSpaceOnUse" maskUnits="objectBoundingBox" x="0" y="0" width="83.7857143" height="22.2745098" fill="white">
            <use xlink:href="#path-12"></use>
        </mask>
    </defs>
    <g id="Page-1" stroke="none" stroke-width="1" fill="none" fill-rule="evenodd">
        <g id="Create" transform="translate(-111.000000, -137.000000)">
            <g id="Group-3" filter="url(#filter-1)" transform="translate(132.000000, 153.000000)">
                <path d="M56,0 L545.180574,5.17920154e-16 C549.638168,-3.00926524e-16 551.254599,0.464128056 552.884229,1.33566352 C554.513858,2.20719898 555.792801,3.48614185 556.664336,5.11577148 C557.535872,6.74540111 558,8.3618323 558,12.819426 L558,523.180574 C558,527.638168 557.535872,529.254599 556.664336,530.884229 C555.792801,532.513858 554.513858,533.792801 552.884229,534.664336 C551.254599,535.535872 549.638168,536 545.180574,536 L56,536 L56,0 Z" id="Main" fill="#FFFFFF"></path>
                <g id="Sidebar">
                    <path d="M0,0 L46,0 L46,0 C51.5228475,-1.01453063e-15 56,4.4771525 56,10 L56,526 L56,526 C56,531.522847 51.5228475,536 46,536 L0,536 L0,0 Z" id="Rectangle-4-Copy" fill="#2C323A" transform="translate(28.000000, 268.000000) scale(-1, 1) translate(-28.000000, -268.000000) "></path>
                    <circle id="Oval" fill="#6BBB69" cx="28" cy="64" r="13"></circle>
                    <circle id="Oval-Copy" fill="#F9D548" cx="28" cy="114" r="13"></circle>
                    <circle id="Oval-Copy-2" fill="#469FE5" cx="28" cy="162" r="13"></circle>
                    <circle id="Oval-Copy-3" fill="#C4C8CC" cx="28" cy="211" r="13"></circle>
                </g>
                <rect id="Rectangle-4-Copy-24" fill="#6BBB69" x="111" y="220" width="70" height="20" rx="4"></rect>
                <g id="Group-4" transform="translate(111.000000, 70.000000)">
                    <rect id="Rectangle-4-Copy-5" fill="#F9FAFA" x="0" y="45" width="223" height="28" rx="4"></rect>
                    <rect id="Rectangle-4-Copy-16" fill="#F9FAFA" x="238" y="45" width="70" height="28" rx="4"></rect>
                    <rect id="Rectangle-4-Copy-21" fill="#F9FAFA" x="322" y="45" width="70" height="28" rx="4"></rect>
                    <rect id="Rectangle-4-Copy-6" fill="#F9FAFA" x="0" y="93" width="223" height="28" rx="4"></rect>
                    <rect id="Rectangle-4-Copy-17" fill="#F9FAFA" x="238" y="93" width="70" height="28" rx="4"></rect>
                    <rect id="Rectangle-4-Copy-22" fill="#F9FAFA" x="322" y="93" width="70" height="28" rx="4"></rect>
                    <rect id="Rectangle-4-Copy-10" fill="#F6F4F4" transform="translate(42.000000, 8.500000) scale(1, -1) translate(-42.000000, -8.500000) " x="0" y="0" width="84" height="17" rx="4"></rect>
                </g>
                <g id="Group" transform="translate(111.000000, 408.000000)" stroke="#B4B7BA" stroke-width="4" stroke-dasharray="10,4,10,4">
                    <use id="Rectangle-4-Copy-7" mask="url(#mask-3)" xlink:href="#path-2"></use>
                    <use id="Rectangle-4-Copy-11" mask="url(#mask-5)" transform="translate(41.769231, 11.137255) scale(1, -1) translate(-41.769231, -11.137255) " xlink:href="#path-4"></use>
                </g>
                <g id="Group-Copy" transform="translate(320.000000, 408.000000)" stroke="#B4B7BA" stroke-width="4" stroke-dasharray="10,4,10,4">
                    <use id="Rectangle-4-Copy-7" mask="url(#mask-7)" xlink:href="#path-6"></use>
                    <use id="Rectangle-4-Copy-11" mask="url(#mask-9)" transform="translate(41.769231, 11.137255) scale(1, -1) translate(-41.769231, -11.137255) " xlink:href="#path-8"></use>
                </g>
                <g id="Group-2" transform="translate(111.000000, 296.000000)" stroke="#B4B7BA" stroke-width="4" stroke-dasharray="10,4,10,4">
                    <use id="Rectangle-4-Copy-8" mask="url(#mask-11)" xlink:href="#path-10"></use>
                    <use id="Rectangle-4-Copy-12" mask="url(#mask-13)" transform="translate(41.892857, 11.137255) scale(1, -1) translate(-41.892857, -11.137255) " xlink:href="#path-12"></use>
                </g>
            </g>
        </g>
    </g>
</svg>