<?xml version="1.0" encoding="UTF-8"?>
<svg width="597px" height="568px" viewBox="0 0 597 568" version="1.1" xmlns="http://www.w3.org/2000/svg" xmlns:xlink="http://www.w3.org/1999/xlink">
    <!-- Generator: Sketch 47 (45396) - http://www.bohemiancoding.com/sketch -->
    <title>PDF</title>
    <desc>Created with Sketch.</desc>
    <defs>
        <polygon id="path-1" points="100.742017 183 485.257983 183 586 377 0 377"></polygon>
        <filter x="-3.4%" y="-5.2%" width="106.8%" height="120.6%" filterUnits="objectBoundingBox" id="filter-2">
            <feOffset dx="0" dy="10" in="SourceAlpha" result="shadowOffsetOuter1"></feOffset>
            <feGaussianBlur stdDeviation="5" in="shadowOffsetOuter1" result="shadowBlurOuter1"></feGaussianBlur>
            <feColorMatrix values="0 0 0 0 0   0 0 0 0 0   0 0 0 0 0  0 0 0 0.2 0" type="matrix" in="shadowBlurOuter1"></feColorMatrix>
        </filter>
        <polygon id="path-3" points="84.5682358 117.154812 407.3515 117.154812 491.919735 279.985801 0 279.985801"></polygon>
        <filter x="-3.0%" y="-9.2%" width="106.1%" height="118.4%" filterUnits="objectBoundingBox" id="filter-4">
            <feOffset dx="0" dy="0" in="SourceAlpha" result="shadowOffsetOuter1"></feOffset>
            <feGaussianBlur stdDeviation="5" in="shadowOffsetOuter1" result="shadowBlurOuter1"></feGaussianBlur>
            <feColorMatrix values="0 0 0 0 0   0 0 0 0 0   0 0 0 0 0  0 0 0 0.1 0" type="matrix" in="shadowBlurOuter1"></feColorMatrix>
        </filter>
        <polygon id="path-5" points="84.5682358 105.439331 407.3515 105.439331 491.919735 268.27032 0 268.27032"></polygon>
        <filter x="-3.0%" y="-9.2%" width="106.1%" height="118.4%" filterUnits="objectBoundingBox" id="filter-6">
            <feOffset dx="0" dy="0" in="SourceAlpha" result="shadowOffsetOuter1"></feOffset>
            <feGaussianBlur stdDeviation="5" in="shadowOffsetOuter1" result="shadowBlurOuter1"></feGaussianBlur>
            <feColorMatrix values="0 0 0 0 0   0 0 0 0 0   0 0 0 0 0  0 0 0 0.1 0" type="matrix" in="shadowBlurOuter1"></feColorMatrix>
        </filter>
        <polygon id="path-7" points="84.5682358 93.7238494 407.3515 93.7238494 491.919735 256.554839 0 256.554839"></polygon>
        <filter x="-3.0%" y="-9.2%" width="106.1%" height="118.4%" filterUnits="objectBoundingBox" id="filter-8">
            <feOffset dx="0" dy="0" in="SourceAlpha" result="shadowOffsetOuter1"></feOffset>
            <feGaussianBlur stdDeviation="5" in="shadowOffsetOuter1" result="shadowBlurOuter1"></feGaussianBlur>
            <feColorMatrix values="0 0 0 0 0   0 0 0 0 0   0 0 0 0 0  0 0 0 0.1 0" type="matrix" in="shadowBlurOuter1"></feColorMatrix>
        </filter>
        <polygon id="path-9" points="84.5682358 82.0083682 407.3515 82.0083682 491.919735 244.839358 0 244.839358"></polygon>
        <filter x="-3.0%" y="-9.2%" width="106.1%" height="118.4%" filterUnits="objectBoundingBox" id="filter-10">
            <feOffset dx="0" dy="0" in="SourceAlpha" result="shadowOffsetOuter1"></feOffset>
            <feGaussianBlur stdDeviation="5" in="shadowOffsetOuter1" result="shadowBlurOuter1"></feGaussianBlur>
            <feColorMatrix values="0 0 0 0 0   0 0 0 0 0   0 0 0 0 0  0 0 0 0.1 0" type="matrix" in="shadowBlurOuter1"></feColorMatrix>
        </filter>
        <polygon id="path-11" points="84.5682358 70.292887 407.3515 70.292887 491.919735 233.123876 0 233.123876"></polygon>
        <filter x="-3.0%" y="-9.2%" width="106.1%" height="118.4%" filterUnits="objectBoundingBox" id="filter-12">
            <feOffset dx="0" dy="0" in="SourceAlpha" result="shadowOffsetOuter1"></feOffset>
            <feGaussianBlur stdDeviation="5" in="shadowOffsetOuter1" result="shadowBlurOuter1"></feGaussianBlur>
            <feColorMatrix values="0 0 0 0 0   0 0 0 0 0   0 0 0 0 0  0 0 0 0.1 0" type="matrix" in="shadowBlurOuter1"></feColorMatrix>
        </filter>
        <polygon id="path-13" points="84.5682358 58.5774059 407.3515 58.5774059 491.919735 221.408395 0 221.408395"></polygon>
        <filter x="-3.0%" y="-9.2%" width="106.1%" height="118.4%" filterUnits="objectBoundingBox" id="filter-14">
            <feOffset dx="0" dy="0" in="SourceAlpha" result="shadowOffsetOuter1"></feOffset>
            <feGaussianBlur stdDeviation="5" in="shadowOffsetOuter1" result="shadowBlurOuter1"></feGaussianBlur>
            <feColorMatrix values="0 0 0 0 0   0 0 0 0 0   0 0 0 0 0  0 0 0 0.1 0" type="matrix" in="shadowBlurOuter1"></feColorMatrix>
        </filter>
        <polygon id="path-15" points="84.5682358 46.8619247 407.3515 46.8619247 491.919735 209.692914 0 209.692914"></polygon>
        <filter x="-3.0%" y="-9.2%" width="106.1%" height="118.4%" filterUnits="objectBoundingBox" id="filter-16">
            <feOffset dx="0" dy="0" in="SourceAlpha" result="shadowOffsetOuter1"></feOffset>
            <feGaussianBlur stdDeviation="5" in="shadowOffsetOuter1" result="shadowBlurOuter1"></feGaussianBlur>
            <feColorMatrix values="0 0 0 0 0   0 0 0 0 0   0 0 0 0 0  0 0 0 0.1 0" type="matrix" in="shadowBlurOuter1"></feColorMatrix>
        </filter>
        <polygon id="path-17" points="84.5682358 35.1464435 407.3515 35.1464435 491.919735 197.977433 0 197.977433"></polygon>
        <filter x="-3.0%" y="-9.2%" width="106.1%" height="118.4%" filterUnits="objectBoundingBox" id="filter-18">
            <feOffset dx="0" dy="0" in="SourceAlpha" result="shadowOffsetOuter1"></feOffset>
            <feGaussianBlur stdDeviation="5" in="shadowOffsetOuter1" result="shadowBlurOuter1"></feGaussianBlur>
            <feColorMatrix values="0 0 0 0 0   0 0 0 0 0   0 0 0 0 0  0 0 0 0.1 0" type="matrix" in="shadowBlurOuter1"></feColorMatrix>
        </filter>
        <polygon id="path-19" points="84.5682358 23.4309623 407.3515 23.4309623 491.919735 186.261952 0 186.261952"></polygon>
        <filter x="-3.0%" y="-9.2%" width="106.1%" height="118.4%" filterUnits="objectBoundingBox" id="filter-20">
            <feOffset dx="0" dy="0" in="SourceAlpha" result="shadowOffsetOuter1"></feOffset>
            <feGaussianBlur stdDeviation="5" in="shadowOffsetOuter1" result="shadowBlurOuter1"></feGaussianBlur>
            <feColorMatrix values="0 0 0 0 0   0 0 0 0 0   0 0 0 0 0  0 0 0 0.1 0" type="matrix" in="shadowBlurOuter1"></feColorMatrix>
        </filter>
        <polygon id="path-21" points="84.5682358 11.7154812 407.3515 11.7154812 491.919735 174.546471 0 174.546471"></polygon>
        <filter x="-3.0%" y="-9.2%" width="106.1%" height="118.4%" filterUnits="objectBoundingBox" id="filter-22">
            <feOffset dx="0" dy="0" in="SourceAlpha" result="shadowOffsetOuter1"></feOffset>
            <feGaussianBlur stdDeviation="5" in="shadowOffsetOuter1" result="shadowBlurOuter1"></feGaussianBlur>
            <feColorMatrix values="0 0 0 0 0   0 0 0 0 0   0 0 0 0 0  0 0 0 0.1 0" type="matrix" in="shadowBlurOuter1"></feColorMatrix>
        </filter>
        <polygon id="path-23" points="84.5682358 0 407.3515 0 491.919735 162.830989 0 162.830989"></polygon>
        <filter x="-3.0%" y="-9.2%" width="106.1%" height="118.4%" filterUnits="objectBoundingBox" id="filter-24">
            <feOffset dx="0" dy="0" in="SourceAlpha" result="shadowOffsetOuter1"></feOffset>
            <feGaussianBlur stdDeviation="5" in="shadowOffsetOuter1" result="shadowBlurOuter1"></feGaussianBlur>
            <feColorMatrix values="0 0 0 0 0   0 0 0 0 0   0 0 0 0 0  0 0 0 0.1 0" type="matrix" in="shadowBlurOuter1"></feColorMatrix>
        </filter>
        <path d="M18,219 L18,363 L569,363 L569,219 L354.461702,219 C353.226936,251.536918 325.865791,277.536585 292.91258,277.536585 C259.959369,277.536585 232.600723,251.536902 231.365957,219 L18,219 Z" id="path-25"></path>
        <filter x="-3.2%" y="-15.6%" width="106.4%" height="124.3%" filterUnits="objectBoundingBox" id="filter-26">
            <feOffset dx="0" dy="-5" in="SourceAlpha" result="shadowOffsetOuter1"></feOffset>
            <feGaussianBlur stdDeviation="5" in="shadowOffsetOuter1" result="shadowBlurOuter1"></feGaussianBlur>
            <feColorMatrix values="0 0 0 0 0   0 0 0 0 0   0 0 0 0 0  0 0 0 0.1 0" type="matrix" in="shadowBlurOuter1"></feColorMatrix>
        </filter>
        <path d="M0,231 L0,384 L586,384 L586,231 L357.46,231 C356.146801,265.570476 327.421694,293.195122 292.375267,293.195122 C257.328839,293.195122 228.681199,265.570458 227.368,231 L0,231 Z" id="path-27"></path>
        <filter x="-3.0%" y="-14.7%" width="106.0%" height="122.9%" filterUnits="objectBoundingBox" id="filter-28">
            <feOffset dx="0" dy="-5" in="SourceAlpha" result="shadowOffsetOuter1"></feOffset>
            <feGaussianBlur stdDeviation="5" in="shadowOffsetOuter1" result="shadowBlurOuter1"></feGaussianBlur>
            <feColorMatrix values="0 0 0 0 0   0 0 0 0 0   0 0 0 0 0  0 0 0 0.1 0" type="matrix" in="shadowBlurOuter1"></feColorMatrix>
        </filter>
    </defs>
    <g id="Page-1" stroke="none" stroke-width="1" fill="none" fill-rule="evenodd">
        <g id="PDF" transform="translate(-111.000000, -137.000000)">
            <g id="Group-3" transform="translate(117.000000, 229.000000)">
                <polygon id="Rectangle-5-Copy-12" fill="#CBC189" points="100.742017 36 485.257983 36 586 230 0 230"></polygon>
                <g id="Rectangle-5-Copy-13" fill-opacity="1" fill="black">
                    <use filter="url(#filter-2)" xlink:href="#path-1"></use>
                </g>
                <polygon id="Rectangle-5-Copy-11" fill="#ACA271" points="114.131915 36 474.040426 36 569 219 18 219"></polygon>
                <g id="Group-2" transform="translate(47.000000, 0.000000)">
                    <g id="Rectangle-5">
                        <use fill="black" fill-opacity="1" filter="url(#filter-4)" xlink:href="#path-3"></use>
                        <use fill="#FFFFFF" fill-rule="evenodd" xlink:href="#path-3"></use>
                    </g>
                    <g id="Rectangle-5-Copy">
                        <use fill="black" fill-opacity="1" filter="url(#filter-6)" xlink:href="#path-5"></use>
                        <use fill="#FFFFFF" fill-rule="evenodd" xlink:href="#path-5"></use>
                    </g>
                    <g id="Rectangle-5-Copy-2">
                        <use fill="black" fill-opacity="1" filter="url(#filter-8)" xlink:href="#path-7"></use>
                        <use fill="#FFFFFF" fill-rule="evenodd" xlink:href="#path-7"></use>
                    </g>
                    <g id="Rectangle-5-Copy-3">
                        <use fill="black" fill-opacity="1" filter="url(#filter-10)" xlink:href="#path-9"></use>
                        <use fill="#FFFFFF" fill-rule="evenodd" xlink:href="#path-9"></use>
                    </g>
                    <g id="Rectangle-5-Copy-4">
                        <use fill="black" fill-opacity="1" filter="url(#filter-12)" xlink:href="#path-11"></use>
                        <use fill="#FFFFFF" fill-rule="evenodd" xlink:href="#path-11"></use>
                    </g>
                    <g id="Rectangle-5-Copy-5">
                        <use fill="black" fill-opacity="1" filter="url(#filter-14)" xlink:href="#path-13"></use>
                        <use fill="#FFFFFF" fill-rule="evenodd" xlink:href="#path-13"></use>
                    </g>
                    <g id="Rectangle-5-Copy-6">
                        <use fill="black" fill-opacity="1" filter="url(#filter-16)" xlink:href="#path-15"></use>
                        <use fill="#FFFFFF" fill-rule="evenodd" xlink:href="#path-15"></use>
                    </g>
                    <g id="Rectangle-5-Copy-7">
                        <use fill="black" fill-opacity="1" filter="url(#filter-18)" xlink:href="#path-17"></use>
                        <use fill="#FFFFFF" fill-rule="evenodd" xlink:href="#path-17"></use>
                    </g>
                    <g id="Rectangle-5-Copy-8">
                        <use fill="black" fill-opacity="1" filter="url(#filter-20)" xlink:href="#path-19"></use>
                        <use fill="#FFFFFF" fill-rule="evenodd" xlink:href="#path-19"></use>
                    </g>
                    <g id="Rectangle-5-Copy-9">
                        <use fill="black" fill-opacity="1" filter="url(#filter-22)" xlink:href="#path-21"></use>
                        <use fill="#FFFFFF" fill-rule="evenodd" xlink:href="#path-21"></use>
                    </g>
                    <g id="Rectangle-5-Copy-10">
                        <use fill="black" fill-opacity="1" filter="url(#filter-24)" xlink:href="#path-23"></use>
                        <use fill="#FFFFFF" fill-rule="evenodd" xlink:href="#path-23"></use>
                    </g>
                </g>
                <g id="Combined-Shape">
                    <use fill="black" fill-opacity="1" filter="url(#filter-26)" xlink:href="#path-25"></use>
                    <use fill="#CBC189" fill-rule="evenodd" xlink:href="#path-25"></use>
                </g>
                <g id="Combined-Shape-Copy">
                    <use fill="black" fill-opacity="1" filter="url(#filter-28)" xlink:href="#path-27"></use>
                    <use fill="#CBC189" fill-rule="evenodd" xlink:href="#path-27"></use>
                </g>
                <polygon id="Rectangle-7" fill="#E6DA9A" points="17.5888325 219 231 219 227.482234 231 0 231"></polygon>
                <polygon id="Rectangle-7-Copy" fill="#E6DA9A" transform="translate(470.000000, 225.000000) scale(-1, 1) translate(-470.000000, -225.000000) " points="371.575758 219 586 219 582.484848 231 354 231"></polygon>
                <path d="M157.593741,27 L153.588775,35.3333333 L432.977068,35.3333333 L428.936694,27 L157.593741,27 Z M145.898998,51.1666667 L141.809462,59.5 L444.860878,59.5 L440.735004,51.1666667 L145.898998,51.1666667 Z M133.959001,75.3333333 L129.784895,83.6666667 L456.992636,83.6666667 L452.781263,75.3333333 L133.959001,75.3333333 Z M121.773751,99.5 L117.515074,107.833333 L469.372344,107.833333 L465.075471,99.5 L121.773751,99.5 Z M109.343247,123.666667 L105,132 L482,132 L477.617627,123.666667 L109.343247,123.666667 Z" id="Combined-Shape" fill="#F9FAFA"></path>
                <g id="Group" transform="translate(389.000000, 261.000000)">
                    <path d="M37.3875,26.495 C42.3375247,26.495 46.1718614,27.6793882 48.890625,30.0482 C51.6093886,32.4170118 52.96875,35.7633784 52.96875,40.0874 C52.96875,44.5994226 51.6093886,48.1055875 48.890625,50.606 C46.1718614,53.1064125 42.3375247,54.3566 37.3875,54.3566 L28.78125,54.3566 L28.78125,65.975 L21.24375,65.975 L21.24375,26.495 L37.3875,26.495 Z M36.99375,47.7014 C39.8437642,47.7014 42.0281174,47.0810062 43.546875,45.8402 C45.0656326,44.5993938 45.825,42.7570122 45.825,40.313 C45.825,37.906588 45.0656326,36.101806 43.546875,34.8986 C42.0281174,33.695394 39.8437642,33.0938 36.99375,33.0938 L28.78125,33.0938 L28.78125,47.7014 L36.99375,47.7014 Z M76.753125,26.495 C80.6906447,26.495 84.2156094,27.3315916 87.328125,29.0048 C90.4406406,30.6780084 92.8781162,33.018585 94.640625,36.0266 C96.4031338,39.034615 97.284375,42.437381 97.284375,46.235 C97.284375,50.032619 96.3937589,53.4259851 94.6125,56.4152 C92.8312411,59.4044149 90.3656407,61.7449915 87.215625,63.437 C84.0656092,65.1290085 80.4843951,65.975 76.471875,65.975 L60.384375,65.975 L60.384375,26.495 L76.753125,26.495 Z M76.921875,59.3198 C79.321887,59.3198 81.4874903,58.7652055 83.41875,57.656 C85.3500097,56.5467945 86.8593696,55.0052099 87.946875,53.0312 C89.0343804,51.0571901 89.578125,48.8106126 89.578125,46.2914 C89.578125,43.7721874 89.0156306,41.5068101 87.890625,39.4952 C86.7656194,37.4835899 85.2187598,35.9232055 83.25,34.814 C81.2812402,33.7047945 79.0781372,33.1502 76.640625,33.1502 L67.921875,33.1502 L67.921875,59.3198 L76.921875,59.3198 Z M105.0375,26.495 L132.20625,26.495 L132.15,33.0938 L112.575,33.0938 L112.575,43.7534 L130.40625,43.7534 L130.40625,50.3522 L112.575,50.3522 L112.575,65.975 L105.0375,65.975 L105.0375,26.495 Z" id="PDF" fill="#B31217" transform="translate(76.725000, 46.235000) rotate(-7.000000) translate(-76.725000, -46.235000) "></path>
                    <rect id="Rectangle" stroke="#B31217" stroke-width="6" transform="translate(75.000000, 46.000000) rotate(-7.000000) translate(-75.000000, -46.000000) " x="1.6875" y="5.4" width="146.625" height="81.2"></rect>
                </g>
            </g>
        </g>
    </g>
</svg>