<svg xmlns="http://www.w3.org/2000/svg" width="597" height="568" xmlns:xlink="http://www.w3.org/1999/xlink"><defs><path id="b" d="M100.742 183h384.516L586 377H0z"/><filter id="a" width="106.8%" height="120.6%" x="-3.4%" y="-5.2%" filterUnits="objectBoundingBox"><feOffset dy="10" in="SourceAlpha" result="shadowOffsetOuter1"/><feGaussianBlur stdDeviation="5" in="shadowOffsetOuter1" result="shadowBlurOuter1"/><feColorMatrix values="0 0 0 0 0 0 0 0 0 0 0 0 0 0 0 0 0 0 0.2 0" in="shadowBlurOuter1"/></filter><path id="d" d="M84.568 117.155H407.35l84.57 162.83H0z"/><filter id="c" width="106.1%" height="118.4%" x="-3%" y="-9.2%" filterUnits="objectBoundingBox"><feOffset in="SourceAlpha" result="shadowOffsetOuter1"/><feGaussianBlur stdDeviation="5" in="shadowOffsetOuter1" result="shadowBlurOuter1"/><feColorMatrix values="0 0 0 0 0 0 0 0 0 0 0 0 0 0 0 0 0 0 0.1 0" in="shadowBlurOuter1"/></filter><path id="f" d="M84.568 105.44H407.35l84.57 162.83H0z"/><filter id="e" width="106.1%" height="118.4%" x="-3%" y="-9.2%" filterUnits="objectBoundingBox"><feOffset in="SourceAlpha" result="shadowOffsetOuter1"/><feGaussianBlur stdDeviation="5" in="shadowOffsetOuter1" result="shadowBlurOuter1"/><feColorMatrix values="0 0 0 0 0 0 0 0 0 0 0 0 0 0 0 0 0 0 0.1 0" in="shadowBlurOuter1"/></filter><path id="h" d="M84.568 93.724H407.35l84.57 162.83H0z"/><filter id="g" width="106.1%" height="118.4%" x="-3%" y="-9.2%" filterUnits="objectBoundingBox"><feOffset in="SourceAlpha" result="shadowOffsetOuter1"/><feGaussianBlur stdDeviation="5" in="shadowOffsetOuter1" result="shadowBlurOuter1"/><feColorMatrix values="0 0 0 0 0 0 0 0 0 0 0 0 0 0 0 0 0 0 0.1 0" in="shadowBlurOuter1"/></filter><path id="j" d="M84.568 82.008H407.35l84.57 162.83H0z"/><filter id="i" width="106.1%" height="118.4%" x="-3%" y="-9.2%" filterUnits="objectBoundingBox"><feOffset in="SourceAlpha" result="shadowOffsetOuter1"/><feGaussianBlur stdDeviation="5" in="shadowOffsetOuter1" result="shadowBlurOuter1"/><feColorMatrix values="0 0 0 0 0 0 0 0 0 0 0 0 0 0 0 0 0 0 0.1 0" in="shadowBlurOuter1"/></filter><path id="l" d="M84.568 70.293H407.35l84.57 162.83H0z"/><filter id="k" width="106.1%" height="118.4%" x="-3%" y="-9.2%" filterUnits="objectBoundingBox"><feOffset in="SourceAlpha" result="shadowOffsetOuter1"/><feGaussianBlur stdDeviation="5" in="shadowOffsetOuter1" result="shadowBlurOuter1"/><feColorMatrix values="0 0 0 0 0 0 0 0 0 0 0 0 0 0 0 0 0 0 0.1 0" in="shadowBlurOuter1"/></filter><path id="n" d="M84.568 58.577H407.35l84.57 162.83H0z"/><filter id="m" width="106.1%" height="118.4%" x="-3%" y="-9.2%" filterUnits="objectBoundingBox"><feOffset in="SourceAlpha" result="shadowOffsetOuter1"/><feGaussianBlur stdDeviation="5" in="shadowOffsetOuter1" result="shadowBlurOuter1"/><feColorMatrix values="0 0 0 0 0 0 0 0 0 0 0 0 0 0 0 0 0 0 0.1 0" in="shadowBlurOuter1"/></filter><path id="p" d="M84.568 46.862H407.35l84.57 162.83H0z"/><filter id="o" width="106.1%" height="118.4%" x="-3%" y="-9.2%" filterUnits="objectBoundingBox"><feOffset in="SourceAlpha" result="shadowOffsetOuter1"/><feGaussianBlur stdDeviation="5" in="shadowOffsetOuter1" result="shadowBlurOuter1"/><feColorMatrix values="0 0 0 0 0 0 0 0 0 0 0 0 0 0 0 0 0 0 0.1 0" in="shadowBlurOuter1"/></filter><path id="r" d="M84.568 35.146H407.35l84.57 162.83H0z"/><filter id="q" width="106.1%" height="118.4%" x="-3%" y="-9.2%" filterUnits="objectBoundingBox"><feOffset in="SourceAlpha" result="shadowOffsetOuter1"/><feGaussianBlur stdDeviation="5" in="shadowOffsetOuter1" result="shadowBlurOuter1"/><feColorMatrix values="0 0 0 0 0 0 0 0 0 0 0 0 0 0 0 0 0 0 0.1 0" in="shadowBlurOuter1"/></filter><path id="t" d="M84.568 23.43H407.35l84.57 162.832H0z"/><filter id="s" width="106.1%" height="118.4%" x="-3%" y="-9.2%" filterUnits="objectBoundingBox"><feOffset in="SourceAlpha" result="shadowOffsetOuter1"/><feGaussianBlur stdDeviation="5" in="shadowOffsetOuter1" result="shadowBlurOuter1"/><feColorMatrix values="0 0 0 0 0 0 0 0 0 0 0 0 0 0 0 0 0 0 0.1 0" in="shadowBlurOuter1"/></filter><path id="v" d="M84.568 11.715H407.35l84.57 162.83H0z"/><filter id="u" width="106.1%" height="118.4%" x="-3%" y="-9.2%" filterUnits="objectBoundingBox"><feOffset in="SourceAlpha" result="shadowOffsetOuter1"/><feGaussianBlur stdDeviation="5" in="shadowOffsetOuter1" result="shadowBlurOuter1"/><feColorMatrix values="0 0 0 0 0 0 0 0 0 0 0 0 0 0 0 0 0 0 0.1 0" in="shadowBlurOuter1"/></filter><path id="x" d="M84.568 0H407.35l84.57 162.83H0z"/><filter id="w" width="106.1%" height="118.4%" x="-3%" y="-9.2%" filterUnits="objectBoundingBox"><feOffset in="SourceAlpha" result="shadowOffsetOuter1"/><feGaussianBlur stdDeviation="5" in="shadowOffsetOuter1" result="shadowBlurOuter1"/><feColorMatrix values="0 0 0 0 0 0 0 0 0 0 0 0 0 0 0 0 0 0 0.1 0" in="shadowBlurOuter1"/></filter><path id="z" d="M18 219v144h551V219H354.462c-1.235 32.537-28.596 58.537-61.55 58.537-32.953 0-60.31-26-61.546-58.537H18z"/><filter id="y" width="106.4%" height="124.3%" x="-3.2%" y="-15.6%" filterUnits="objectBoundingBox"><feOffset dy="-5" in="SourceAlpha" result="shadowOffsetOuter1"/><feGaussianBlur stdDeviation="5" in="shadowOffsetOuter1" result="shadowBlurOuter1"/><feColorMatrix values="0 0 0 0 0 0 0 0 0 0 0 0 0 0 0 0 0 0 0.1 0" in="shadowBlurOuter1"/></filter><path id="B" d="M0 231v153h586V231H357.46c-1.313 34.57-30.038 62.195-65.085 62.195-35.046 0-63.694-27.625-65.007-62.195H0z"/><filter id="A" width="106%" height="122.9%" x="-3%" y="-14.7%" filterUnits="objectBoundingBox"><feOffset dy="-5" in="SourceAlpha" result="shadowOffsetOuter1"/><feGaussianBlur stdDeviation="5" in="shadowOffsetOuter1" result="shadowBlurOuter1"/><feColorMatrix values="0 0 0 0 0 0 0 0 0 0 0 0 0 0 0 0 0 0 0.1 0" in="shadowBlurOuter1"/></filter></defs><g fill="none" fill-rule="evenodd"><path fill="#CBC189" d="M106.742 128h384.516L592 322H6"/><use fill="#000" filter="url(#a)" xlink:href="#b" transform="translate(6 92)"/><path fill="#ACA271" d="M120.132 128H480.04L575 311H24"/><g transform="translate(53 92)"><use fill="#000" filter="url(#c)" xlink:href="#d"/><use fill="#FFF" xlink:href="#d"/></g><g transform="translate(53 92)"><use fill="#000" filter="url(#e)" xlink:href="#f"/><use fill="#FFF" xlink:href="#f"/></g><g transform="translate(53 92)"><use fill="#000" filter="url(#g)" xlink:href="#h"/><use fill="#FFF" xlink:href="#h"/></g><g transform="translate(53 92)"><use fill="#000" filter="url(#i)" xlink:href="#j"/><use fill="#FFF" xlink:href="#j"/></g><g transform="translate(53 92)"><use fill="#000" filter="url(#k)" xlink:href="#l"/><use fill="#FFF" xlink:href="#l"/></g><g transform="translate(53 92)"><use fill="#000" filter="url(#m)" xlink:href="#n"/><use fill="#FFF" xlink:href="#n"/></g><g transform="translate(53 92)"><use fill="#000" filter="url(#o)" xlink:href="#p"/><use fill="#FFF" xlink:href="#p"/></g><g transform="translate(53 92)"><use fill="#000" filter="url(#q)" xlink:href="#r"/><use fill="#FFF" xlink:href="#r"/></g><g transform="translate(53 92)"><use fill="#000" filter="url(#s)" xlink:href="#t"/><use fill="#FFF" xlink:href="#t"/></g><g transform="translate(53 92)"><use fill="#000" filter="url(#u)" xlink:href="#v"/><use fill="#FFF" xlink:href="#v"/></g><g transform="translate(53 92)"><use fill="#000" filter="url(#w)" xlink:href="#x"/><use fill="#FFF" xlink:href="#x"/></g><g transform="translate(6 92)"><use fill="#000" filter="url(#y)" xlink:href="#z"/><use fill="#CBC189" xlink:href="#z"/></g><g transform="translate(6 92)"><use fill="#000" filter="url(#A)" xlink:href="#B"/><use fill="#CBC189" xlink:href="#B"/></g><path fill="#E6DA9A" d="M23.59 311H237l-3.518 12H6M574.424 311H360l3.515 12H592"/><path fill="#F9FAFA" d="M163.594 119l-4.005 8.333h279.387l-4.04-8.333H163.594zM151.9 143.167l-4.09 8.333h303.05l-4.125-8.333H151.9zm-11.94 24.166l-4.175 8.334h327.208l-4.212-8.334H139.96zM127.773 191.5l-4.26 8.333h351.858l-4.297-8.333h-343.3zm-12.43 24.167L111 224h377l-4.382-8.333H115.343z"/><g><path fill="#B31217" d="M430.275 384.436c4.913-.603 8.863.105 11.85 2.125 2.988 2.02 4.745 5.177 5.272 9.468.55 4.48-.372 8.124-2.766 10.938-2.393 2.813-6.046 4.52-10.96 5.124l-8.542 1.05 1.416 11.53-7.48.92-4.812-39.186 16.023-1.968zm2.194 21.096c2.827-.347 4.92-1.23 6.276-2.645 1.356-1.417 1.885-3.338 1.588-5.764-.294-2.39-1.267-4.087-2.92-5.097-1.655-1.01-3.897-1.34-6.726-.992l-8.15 1 1.78 14.5 8.15-1.002zm36.877-25.893c3.908-.48 7.51-.08 10.802 1.2 3.292 1.282 5.997 3.31 8.113 6.08 2.116 2.77 3.405 6.04 3.868 9.81.464 3.77-.006 7.245-1.41 10.43-1.404 3.183-3.566 5.807-6.486 7.87-2.92 2.064-6.372 3.34-10.355 3.83l-15.968 1.96-4.812-39.186 16.247-1.995zm4.168 32.558c2.382-.292 4.464-1.107 6.246-2.443s3.093-3.05 3.93-5.142c.84-2.092 1.106-4.388.8-6.888-.308-2.5-1.142-4.68-2.504-6.54-1.362-1.86-3.087-3.22-5.177-4.08-2.09-.862-4.344-1.144-6.763-.847l-8.654 1.063 3.19 25.975 8.932-1.097zm23.906-36.006l26.967-3.31.748 6.555-19.43 2.386 1.3 10.58 17.7-2.173.803 6.55-17.698 2.172 1.903 15.507-7.48.917-4.812-39.185z"/><path stroke="#B31217" stroke-width="6" d="M392.287 367.637l145.532-17.87 9.894 80.596-145.532 17.87z"/></g></g></svg>