<?xml version="1.0" encoding="UTF-8"?>
<svg width="597px" height="568px" viewBox="0 0 597 568" version="1.1" xmlns="http://www.w3.org/2000/svg" xmlns:xlink="http://www.w3.org/1999/xlink">
    <!-- Generator: Sketch 47 (45396) - http://www.bohemiancoding.com/sketch -->
    <title>Success</title>
    <desc>Created with Sketch.</desc>
    <defs>
        <rect id="path-1" x="0" y="0" width="13" height="539" rx="6.5"></rect>
        <filter x="-115.4%" y="-2.8%" width="330.8%" height="105.6%" filterUnits="objectBoundingBox" id="filter-3">
            <feOffset dx="0" dy="0" in="SourceAlpha" result="shadowOffsetOuter1"></feOffset>
            <feGaussianBlur stdDeviation="5" in="shadowOffsetOuter1" result="shadowBlurOuter1"></feGaussianBlur>
            <feColorMatrix values="0 0 0 0 0   0 0 0 0 0   0 0 0 0 0  0 0 0 0.1 0" type="matrix" in="shadowBlurOuter1"></feColorMatrix>
        </filter>
        <linearGradient x1="51.5485466%" y1="35.6139606%" x2="51.5485466%" y2="0%" id="linearGradient-4">
            <stop stop-color="#1A1A1A" offset="0%"></stop>
            <stop stop-color="#B2B2B2" offset="100%"></stop>
        </linearGradient>
        <linearGradient x1="50%" y1="47.6881378%" x2="50%" y2="100%" id="linearGradient-5">
            <stop stop-color="#000000" stop-opacity="0" offset="0%"></stop>
            <stop stop-color="#000000" stop-opacity="0.2" offset="100%"></stop>
        </linearGradient>
        <path d="M0,1.42108547e-13 L516.744872,1.42108547e-13 L516.744872,1.19015908e-13 C521.16315,5.5416777e-14 524.744872,3.581722 524.744872,8 C524.744872,10.3629736 523.700229,12.6050671 521.891048,14.1251018 L388.216292,126.435696 L388.216292,126.435696 C384.833492,129.277851 384.395212,134.324174 387.237367,137.706974 C387.502651,138.022722 387.791954,138.317484 388.102687,138.588625 L522.626876,255.972173 L522.626876,255.972173 C525.955953,258.877069 526.299819,263.930704 523.394922,267.259781 C521.875683,269.000864 519.677821,270 517.367095,270 L0,270 L0,1.42108547e-13 Z" id="path-6"></path>
        <filter x="-2.9%" y="-5.6%" width="105.7%" height="111.1%" filterUnits="objectBoundingBox" id="filter-8">
            <feOffset dx="0" dy="0" in="SourceAlpha" result="shadowOffsetOuter1"></feOffset>
            <feGaussianBlur stdDeviation="5" in="shadowOffsetOuter1" result="shadowBlurOuter1"></feGaussianBlur>
            <feColorMatrix values="0 0 0 0 0   0 0 0 0 0   0 0 0 0 0  0 0 0 0.1 0" type="matrix" in="shadowBlurOuter1"></feColorMatrix>
        </filter>
        <linearGradient x1="0%" y1="50%" x2="71.7085598%" y2="50%" id="linearGradient-9">
            <stop stop-color="#000000" stop-opacity="0.05" offset="0%"></stop>
            <stop stop-color="#000000" stop-opacity="0.2" offset="100%"></stop>
        </linearGradient>
    </defs>
    <g id="Page-1" stroke="none" stroke-width="1" fill="none" fill-rule="evenodd">
        <g id="Templates-Copy" transform="translate(-122.000000, -137.000000)">
            <g id="Group" transform="translate(152.000000, 152.000000)">
                <g id="Pole">
                    <mask id="mask-2" fill="white">
                        <use xlink:href="#path-1"></use>
                    </mask>
                    <g id="Rectangle-6-Copy" transform="translate(6.500000, 269.500000) scale(-1, 1) translate(-6.500000, -269.500000) ">
                        <use fill="black" fill-opacity="1" filter="url(#filter-3)" xlink:href="#path-1"></use>
                        <use fill="#2C323A" fill-rule="evenodd" xlink:href="#path-1"></use>
                    </g>
                    <rect id="Gradient" fill="url(#linearGradient-4)" style="mix-blend-mode: lighten;" mask="url(#mask-2)" transform="translate(6.500000, 269.500000) scale(-1, 1) translate(-6.500000, -269.500000) " x="0" y="0" width="13" height="539"></rect>
                </g>
                <g id="Flag" transform="translate(12.000000, 0.000000)">
                    <mask id="mask-7" fill="white">
                        <use xlink:href="#path-6"></use>
                    </mask>
                    <g id="Rectangle-6-Copy-2">
                        <use fill="black" fill-opacity="1" filter="url(#filter-8)" xlink:href="#path-6"></use>
                        <use fill="url(#linearGradient-5)" fill-rule="evenodd" xlink:href="#path-6"></use>
                    </g>
                    <path d="M0,0 L538.703082,0 L538.703082,270 L0,270 L0,0 Z M0,0 L0,54 L53.8703082,54 L53.8703082,0 L0,0 Z M0,108 L0,162 L53.8703082,162 L53.8703082,108 L0,108 Z M53.8703082,162 L53.8703082,216 L107.740616,216 L107.740616,162 L53.8703082,162 Z M53.8703082,54 L53.8703082,108 L107.740616,108 L107.740616,54 L53.8703082,54 Z M107.740616,0 L107.740616,54 L161.610925,54 L161.610925,0 L107.740616,0 Z M107.740616,108 L107.740616,162 L161.610925,162 L161.610925,108 L107.740616,108 Z M161.610925,162 L161.610925,216 L215.481233,216 L215.481233,162 L161.610925,162 Z M161.610925,54 L161.610925,108 L215.481233,108 L215.481233,54 L161.610925,54 Z M215.481233,0 L215.481233,54 L269.351541,54 L269.351541,0 L215.481233,0 Z M215.481233,108 L215.481233,162 L269.351541,162 L269.351541,108 L215.481233,108 Z M269.351541,162 L269.351541,216 L323.221849,216 L323.221849,162 L269.351541,162 Z M269.351541,54 L269.351541,108 L323.221849,108 L323.221849,54 L269.351541,54 Z M323.221849,0 L323.221849,54 L377.092157,54 L377.092157,0 L323.221849,0 Z M323.221849,108 L323.221849,162 L377.092157,162 L377.092157,108 L323.221849,108 Z M377.092157,162 L377.092157,216 L430.962465,216 L430.962465,162 L377.092157,162 Z M377.092157,54 L377.092157,108 L430.962465,108 L430.962465,54 L377.092157,54 Z M430.962465,0 L430.962465,54 L484.832774,54 L484.832774,0 L430.962465,0 Z M430.962465,108 L430.962465,162 L484.832774,162 L484.832774,108 L430.962465,108 Z M484.832774,162 L484.832774,216 L538.703082,216 L538.703082,162 L484.832774,162 Z M484.832774,54 L484.832774,108 L538.703082,108 L538.703082,54 L484.832774,54 Z M0,216 L0,270 L53.8703082,270 L53.8703082,216 L0,216 Z M107.740616,216 L107.740616,270 L161.610925,270 L161.610925,216 L107.740616,216 Z M215.481233,216 L215.481233,270 L269.351541,270 L269.351541,216 L215.481233,216 Z M323.221849,216 L323.221849,270 L377.092157,270 L377.092157,216 L323.221849,216 Z M430.962465,216 L430.962465,270 L484.832774,270 L484.832774,216 L430.962465,216 Z" id="Combined-Shape" fill="#2C323A" mask="url(#mask-7)"></path>
                    <rect id="Rectangle-6" fill="url(#linearGradient-9)" mask="url(#mask-7)" x="0" y="0" width="538.703082" height="270"></rect>
                </g>
            </g>
        </g>
    </g>
</svg>