<svg xmlns="http://www.w3.org/2000/svg" width="597" height="568" xmlns:xlink="http://www.w3.org/1999/xlink"><defs><rect id="a" width="13" height="539" rx="6.5"/><filter id="b" width="330.8%" height="105.6%" x="-115.4%" y="-2.8%" filterUnits="objectBoundingBox"><feOffset in="SourceAlpha" result="shadowOffsetOuter1"/><feGaussianBlur stdDeviation="5" in="shadowOffsetOuter1" result="shadowBlurOuter1"/><feColorMatrix values="0 0 0 0 0 0 0 0 0 0 0 0 0 0 0 0 0 0 0.1 0" in="shadowBlurOuter1"/></filter><linearGradient id="c" x1="51.549%" x2="51.549%" y1="35.614%" y2="0%"><stop stop-color="#1A1A1A" offset="0%"/><stop stop-color="#B2B2B2" offset="100%"/></linearGradient><linearGradient id="g" x1="50%" x2="50%" y1="47.688%" y2="100%"><stop stop-opacity="0" offset="0%"/><stop stop-opacity=".2" offset="100%"/></linearGradient><path id="e" d="M0 0h516.745c4.418 0 8 3.582 8 8 0 2.363-1.045 4.605-2.854 6.125l-133.674 112.31c-3.383 2.843-3.82 7.89-.98 11.272.267.316.556.61.867.882L522.627 255.97c3.33 2.905 3.673 7.96.768 11.288-1.52 1.74-3.717 2.74-6.028 2.74H0V0z"/><filter id="f" width="105.7%" height="111.1%" x="-2.9%" y="-5.6%" filterUnits="objectBoundingBox"><feOffset in="SourceAlpha" result="shadowOffsetOuter1"/><feGaussianBlur stdDeviation="5" in="shadowOffsetOuter1" result="shadowBlurOuter1"/><feColorMatrix values="0 0 0 0 0 0 0 0 0 0 0 0 0 0 0 0 0 0 0.1 0" in="shadowBlurOuter1"/></filter><linearGradient id="i" x1="0%" x2="71.709%" y1="50%" y2="50%"><stop stop-opacity=".05" offset="0%"/><stop stop-opacity=".2" offset="100%"/></linearGradient></defs><g fill="none" fill-rule="evenodd"><g transform="translate(30 15)"><mask id="d" fill="#fff"><use xlink:href="#a"/></mask><g transform="matrix(-1 0 0 1 13 0)"><use fill="#000" filter="url(#b)" xlink:href="#a"/><use fill="#2C323A" xlink:href="#a"/></g><path fill="url(#c)" d="M0 0h13v539H0z" style="mix-blend-mode:lighten" mask="url(#d)" transform="matrix(-1 0 0 1 13 0)"/></g><g transform="translate(42 15)"><mask id="h" fill="#fff"><use xlink:href="#e"/></mask><use fill="#000" filter="url(#f)" xlink:href="#e"/><use fill="url(#g)" xlink:href="#e"/><path fill="#2C323A" d="M0 0h538.703v270H0V0zm0 0v54h53.87V0H0zm0 108v54h53.87v-54H0zm53.87 54v54h53.87v-54H53.87zm0-108v54h53.87V54H53.87zm53.87-54v54h53.87V0h-53.87zm0 108v54h53.87v-54h-53.87zm53.87 54v54h53.87v-54h-53.87zm0-108v54h53.87V54h-53.87zm53.87-54v54h53.872V0h-53.87zm0 108v54h53.872v-54h-53.87zm53.872 54v54h53.87v-54h-53.87zm0-108v54h53.87V54h-53.87zm53.87-54v54h53.87V0h-53.87zm0 108v54h53.87v-54h-53.87zm53.87 54v54h53.87v-54h-53.87zm0-108v54h53.87V54h-53.87zm53.87-54v54h53.87V0h-53.87zm0 108v54h53.87v-54h-53.87zm53.87 54v54h53.87v-54h-53.87zm0-108v54h53.87V54h-53.87zM0 216v54h53.87v-54H0zm107.74 0v54h53.87v-54h-53.87zm107.74 0v54h53.872v-54h-53.87zm107.742 0v54h53.87v-54h-53.87zm107.74 0v54h53.87v-54h-53.87z" mask="url(#h)"/><path fill="url(#i)" d="M0 0h538.703v270H0z" mask="url(#h)"/></g></g></svg>